<?xml version="1.0" encoding="UTF-8" standalone="no"?><svg xmlns="http://www.w3.org/2000/svg" xmlns:xlink="http://www.w3.org/1999/xlink" contentScriptType="application/ecmascript" contentStyleType="text/css" height="640.625px" preserveAspectRatio="none" style="width:1842px;height:640px;background:#333333;" version="1.1" viewBox="0 0 1842 640" width="1842.7083px" zoomAndPan="magnify"><defs/><g><rect fill="#48494B" height="41.2028" rx="8.3333" ry="8.3333" style="stroke:#545454;stroke-width:1.0416666666666667;" width="198.9583" x="814.5833" y="2.0833"/><text fill="#C0C0C0" font-family="Open Sans,Avenir,Nunito,Arial,Helvetica,SansSerif" font-size="20.8333" lengthAdjust="spacing" textLength="176.0417" x="826.0417" y="30.5583">kivakit-examples</text><!--MD5=[4f079977920bf52107586fb847a1e92c]
entity kryo--><rect fill="#1B1B1A" height="44.93" rx="8.3333" ry="8.3333" style="stroke:#5E5E5E;stroke-width:1.5625;" width="63.5417" x="792.1875" y="375.5778"/><polygon fill="#1B1B1A" points="838.0208,380.7861,838.0208,395.3695,850.5208,395.3695,850.5208,387.0361,844.2708,380.7861,838.0208,380.7861" style="stroke:#5E5E5E;stroke-width:1.5625;"/><line style="stroke:#5E5E5E;stroke-width:1.5625;" x1="844.2708" x2="844.2708" y1="380.7861" y2="387.0361"/><line style="stroke:#5E5E5E;stroke-width:1.5625;" x1="850.5208" x2="844.2708" y1="387.0361" y2="387.0361"/><text fill="#D8BC00" font-family="Open Sans,Avenir,Nunito,Arial,Helvetica,SansSerif" font-size="12.5" lengthAdjust="spacing" textLength="26.0417" x="805.7292" y="404.3294">kryo</text><!--MD5=[745ab22dbfa32e29a2660b9e5bc2262a]
entity minlog--><rect fill="#1B1B1A" height="44.93" rx="8.3333" ry="8.3333" style="stroke:#5E5E5E;stroke-width:1.5625;" width="77.0833" x="660.4167" y="482.8695"/><polygon fill="#1B1B1A" points="719.7917,488.0778,719.7917,502.6611,732.2917,502.6611,732.2917,494.3278,726.0417,488.0778,719.7917,488.0778" style="stroke:#5E5E5E;stroke-width:1.5625;"/><line style="stroke:#5E5E5E;stroke-width:1.5625;" x1="726.0417" x2="726.0417" y1="488.0778" y2="494.3278"/><line style="stroke:#5E5E5E;stroke-width:1.5625;" x1="732.2917" x2="726.0417" y1="494.3278" y2="494.3278"/><text fill="#D8BC00" font-family="Open Sans,Avenir,Nunito,Arial,Helvetica,SansSerif" font-size="12.5" lengthAdjust="spacing" textLength="39.5833" x="673.9583" y="511.6211">minlog</text><!--MD5=[5d0bc62e6e2e5a8467f655d5e580826c]
entity reflectasm--><rect fill="#1B1B1A" height="44.93" rx="8.3333" ry="8.3333" style="stroke:#5E5E5E;stroke-width:1.5625;" width="100" x="773.9583" y="482.8695"/><polygon fill="#1B1B1A" points="856.25,488.0778,856.25,502.6611,868.75,502.6611,868.75,494.3278,862.5,488.0778,856.25,488.0778" style="stroke:#5E5E5E;stroke-width:1.5625;"/><line style="stroke:#5E5E5E;stroke-width:1.5625;" x1="862.5" x2="862.5" y1="488.0778" y2="494.3278"/><line style="stroke:#5E5E5E;stroke-width:1.5625;" x1="868.75" x2="862.5" y1="494.3278" y2="494.3278"/><text fill="#D8BC00" font-family="Open Sans,Avenir,Nunito,Arial,Helvetica,SansSerif" font-size="12.5" lengthAdjust="spacing" textLength="62.5" x="787.5" y="511.6211">reflectasm</text><!--MD5=[07375bd6ced801b2ef86c9d3f68eec61]
entity jackson_annotations--><rect fill="#1B1B1A" height="44.93" rx="8.3333" ry="8.3333" style="stroke:#5E5E5E;stroke-width:1.5625;" width="158.3333" x="7.2917" y="482.8695"/><polygon fill="#1B1B1A" points="147.9167,488.0778,147.9167,502.6611,160.4167,502.6611,160.4167,494.3278,154.1667,488.0778,147.9167,488.0778" style="stroke:#5E5E5E;stroke-width:1.5625;"/><line style="stroke:#5E5E5E;stroke-width:1.5625;" x1="154.1667" x2="154.1667" y1="488.0778" y2="494.3278"/><line style="stroke:#5E5E5E;stroke-width:1.5625;" x1="160.4167" x2="154.1667" y1="494.3278" y2="494.3278"/><text fill="#D8BC00" font-family="Open Sans,Avenir,Nunito,Arial,Helvetica,SansSerif" font-size="12.5" lengthAdjust="spacing" textLength="120.8333" x="20.8333" y="511.6211">jackson_annotations</text><!--MD5=[4aa4ddcf3dc6d6219283db0a9fd05165]
entity cactus_build_metadata--><rect fill="#1B1B1A" height="44.93" rx="8.3333" ry="8.3333" style="stroke:#5E5E5E;stroke-width:1.5625;" width="175" x="1655.2083" y="268.2861"/><polygon fill="#1B1B1A" points="1812.5,273.4945,1812.5,288.0778,1825,288.0778,1825,279.7445,1818.75,273.4945,1812.5,273.4945" style="stroke:#5E5E5E;stroke-width:1.5625;"/><line style="stroke:#5E5E5E;stroke-width:1.5625;" x1="1818.75" x2="1818.75" y1="273.4945" y2="279.7445"/><line style="stroke:#5E5E5E;stroke-width:1.5625;" x1="1825" x2="1818.75" y1="279.7445" y2="279.7445"/><text fill="#D8BC00" font-family="Open Sans,Avenir,Nunito,Arial,Helvetica,SansSerif" font-size="12.5" lengthAdjust="spacing" textLength="137.5" x="1668.75" y="297.0378">cactus_build_metadata</text><!--MD5=[45672d575b1ce7dfe271c63a1d4308c0]
entity kivakit_application--><rect fill="#1B1B1A" height="44.93" rx="8.3333" ry="8.3333" style="stroke:#5E5E5E;stroke-width:1.5625;" width="147.9167" x="548.9583" y="160.9945"/><polygon fill="#1B1B1A" points="679.1667,166.2028,679.1667,180.7861,691.6667,180.7861,691.6667,172.4528,685.4167,166.2028,679.1667,166.2028" style="stroke:#5E5E5E;stroke-width:1.5625;"/><line style="stroke:#5E5E5E;stroke-width:1.5625;" x1="685.4167" x2="685.4167" y1="166.2028" y2="172.4528"/><line style="stroke:#5E5E5E;stroke-width:1.5625;" x1="691.6667" x2="685.4167" y1="172.4528" y2="172.4528"/><text fill="#D8BC00" font-family="Open Sans,Avenir,Nunito,Arial,Helvetica,SansSerif" font-size="12.5" lengthAdjust="spacing" textLength="110.4167" x="562.5" y="189.7461">kivakit_application</text><!--MD5=[4facc4376e4b6bfc182ce14f42a813f9]
entity kivakit_collections--><rect fill="#1B1B1A" height="44.93" rx="8.3333" ry="8.3333" style="stroke:#5E5E5E;stroke-width:1.5625;" width="143.75" x="942.7083" y="160.9945"/><polygon fill="#1B1B1A" points="1068.75,166.2028,1068.75,180.7861,1081.25,180.7861,1081.25,172.4528,1075,166.2028,1068.75,166.2028" style="stroke:#5E5E5E;stroke-width:1.5625;"/><line style="stroke:#5E5E5E;stroke-width:1.5625;" x1="1075" x2="1075" y1="166.2028" y2="172.4528"/><line style="stroke:#5E5E5E;stroke-width:1.5625;" x1="1081.25" x2="1075" y1="172.4528" y2="172.4528"/><text fill="#D8BC00" font-family="Open Sans,Avenir,Nunito,Arial,Helvetica,SansSerif" font-size="12.5" lengthAdjust="spacing" textLength="106.25" x="956.25" y="189.7461">kivakit_collections</text><!--MD5=[b7af8d5b7902cf06664f76dfe0f9e426]
entity kivakit_commandline--><rect fill="#1B1B1A" height="44.93" rx="8.3333" ry="8.3333" style="stroke:#5E5E5E;stroke-width:1.5625;" width="162.5" x="343.75" y="268.2861"/><polygon fill="#1B1B1A" points="488.5417,273.4945,488.5417,288.0778,501.0417,288.0778,501.0417,279.7445,494.7917,273.4945,488.5417,273.4945" style="stroke:#5E5E5E;stroke-width:1.5625;"/><line style="stroke:#5E5E5E;stroke-width:1.5625;" x1="494.7917" x2="494.7917" y1="273.4945" y2="279.7445"/><line style="stroke:#5E5E5E;stroke-width:1.5625;" x1="501.0417" x2="494.7917" y1="279.7445" y2="279.7445"/><text fill="#D8BC00" font-family="Open Sans,Avenir,Nunito,Arial,Helvetica,SansSerif" font-size="12.5" lengthAdjust="spacing" textLength="125" x="357.2917" y="297.0378">kivakit_commandline</text><!--MD5=[c68e98f234d4ac85d03ca04aa775ddf3]
entity kivakit_configuration--><rect fill="#1B1B1A" height="44.93" rx="8.3333" ry="8.3333" style="stroke:#5E5E5E;stroke-width:1.5625;" width="159.375" x="543.2292" y="268.2861"/><polygon fill="#1B1B1A" points="684.8958,273.4945,684.8958,288.0778,697.3958,288.0778,697.3958,279.7445,691.1458,273.4945,684.8958,273.4945" style="stroke:#5E5E5E;stroke-width:1.5625;"/><line style="stroke:#5E5E5E;stroke-width:1.5625;" x1="691.1458" x2="691.1458" y1="273.4945" y2="279.7445"/><line style="stroke:#5E5E5E;stroke-width:1.5625;" x1="697.3958" x2="691.1458" y1="279.7445" y2="279.7445"/><text fill="#D8BC00" font-family="Open Sans,Avenir,Nunito,Arial,Helvetica,SansSerif" font-size="12.5" lengthAdjust="spacing" textLength="121.875" x="556.7708" y="297.0378">kivakit_configuration</text><!--MD5=[478899756f5911834fc0364b46805527]
entity kivakit_examples--><rect fill="#1B1B1A" height="44.93" rx="8.3333" ry="8.3333" style="stroke:#5E5E5E;stroke-width:1.5625;" width="140.625" x="1201.5625" y="53.7028"/><polygon fill="#1B1B1A" points="1324.4792,58.9111,1324.4792,73.4945,1336.9792,73.4945,1336.9792,65.1611,1330.7292,58.9111,1324.4792,58.9111" style="stroke:#5E5E5E;stroke-width:1.5625;"/><line style="stroke:#5E5E5E;stroke-width:1.5625;" x1="1330.7292" x2="1330.7292" y1="58.9111" y2="65.1611"/><line style="stroke:#5E5E5E;stroke-width:1.5625;" x1="1336.9792" x2="1330.7292" y1="65.1611" y2="65.1611"/><text fill="#D8BC00" font-family="Open Sans,Avenir,Nunito,Arial,Helvetica,SansSerif" font-size="12.5" lengthAdjust="spacing" textLength="103.125" x="1215.1042" y="82.4544">kivakit_examples</text><!--MD5=[17eeaa61da6b3f8cb25de5876b62ec23]
entity kivakit_kernel--><rect fill="#1B1B1A" height="44.93" rx="8.3333" ry="8.3333" style="stroke:#5E5E5E;stroke-width:1.5625;" width="119.7917" x="365.1042" y="375.5778"/><polygon fill="#1B1B1A" points="467.1875,380.7861,467.1875,395.3695,479.6875,395.3695,479.6875,387.0361,473.4375,380.7861,467.1875,380.7861" style="stroke:#5E5E5E;stroke-width:1.5625;"/><line style="stroke:#5E5E5E;stroke-width:1.5625;" x1="473.4375" x2="473.4375" y1="380.7861" y2="387.0361"/><line style="stroke:#5E5E5E;stroke-width:1.5625;" x1="479.6875" x2="473.4375" y1="387.0361" y2="387.0361"/><text fill="#D8BC00" font-family="Open Sans,Avenir,Nunito,Arial,Helvetica,SansSerif" font-size="12.5" lengthAdjust="spacing" textLength="82.2917" x="378.6458" y="404.3294">kivakit_kernel</text><!--MD5=[69aef7896e565a816d1082fbfba261ce]
entity kivakit_network_core--><rect fill="#1B1B1A" height="44.93" rx="8.3333" ry="8.3333" style="stroke:#5E5E5E;stroke-width:1.5625;" width="162.5" x="1103.125" y="268.2861"/><polygon fill="#1B1B1A" points="1247.9167,273.4945,1247.9167,288.0778,1260.4167,288.0778,1260.4167,279.7445,1254.1667,273.4945,1247.9167,273.4945" style="stroke:#5E5E5E;stroke-width:1.5625;"/><line style="stroke:#5E5E5E;stroke-width:1.5625;" x1="1254.1667" x2="1254.1667" y1="273.4945" y2="279.7445"/><line style="stroke:#5E5E5E;stroke-width:1.5625;" x1="1260.4167" x2="1254.1667" y1="279.7445" y2="279.7445"/><text fill="#D8BC00" font-family="Open Sans,Avenir,Nunito,Arial,Helvetica,SansSerif" font-size="12.5" lengthAdjust="spacing" textLength="125" x="1116.6667" y="297.0378">kivakit_network_core</text><!--MD5=[619e5058bf9878b2704e3a37e8725778]
entity kivakit_network_http--><rect fill="#1B1B1A" height="44.93" rx="8.3333" ry="8.3333" style="stroke:#5E5E5E;stroke-width:1.5625;" width="160.4167" x="1191.6667" y="160.9945"/><polygon fill="#1B1B1A" points="1334.375,166.2028,1334.375,180.7861,1346.875,180.7861,1346.875,172.4528,1340.625,166.2028,1334.375,166.2028" style="stroke:#5E5E5E;stroke-width:1.5625;"/><line style="stroke:#5E5E5E;stroke-width:1.5625;" x1="1340.625" x2="1340.625" y1="166.2028" y2="172.4528"/><line style="stroke:#5E5E5E;stroke-width:1.5625;" x1="1346.875" x2="1340.625" y1="172.4528" y2="172.4528"/><text fill="#D8BC00" font-family="Open Sans,Avenir,Nunito,Arial,Helvetica,SansSerif" font-size="12.5" lengthAdjust="spacing" textLength="122.9167" x="1205.2083" y="189.7461">kivakit_network_http</text><!--MD5=[789122fdd47ca161e4432768ac68a470]
entity kivakit_resource--><rect fill="#1B1B1A" height="44.93" rx="8.3333" ry="8.3333" style="stroke:#5E5E5E;stroke-width:1.5625;" width="134.375" x="1423.4375" y="160.9945"/><polygon fill="#1B1B1A" points="1540.1042,166.2028,1540.1042,180.7861,1552.6042,180.7861,1552.6042,172.4528,1546.3542,166.2028,1540.1042,166.2028" style="stroke:#5E5E5E;stroke-width:1.5625;"/><line style="stroke:#5E5E5E;stroke-width:1.5625;" x1="1546.3542" x2="1546.3542" y1="166.2028" y2="172.4528"/><line style="stroke:#5E5E5E;stroke-width:1.5625;" x1="1552.6042" x2="1546.3542" y1="172.4528" y2="172.4528"/><text fill="#D8BC00" font-family="Open Sans,Avenir,Nunito,Arial,Helvetica,SansSerif" font-size="12.5" lengthAdjust="spacing" textLength="96.875" x="1436.9792" y="189.7461">kivakit_resource</text><!--MD5=[36d6698749274a8cf649f777e5fa474b]
entity kivakit_security--><rect fill="#1B1B1A" height="44.93" rx="8.3333" ry="8.3333" style="stroke:#5E5E5E;stroke-width:1.5625;" width="128.125" x="1092.1875" y="375.5778"/><polygon fill="#1B1B1A" points="1202.6042,380.7861,1202.6042,395.3695,1215.1042,395.3695,1215.1042,387.0361,1208.8542,380.7861,1202.6042,380.7861" style="stroke:#5E5E5E;stroke-width:1.5625;"/><line style="stroke:#5E5E5E;stroke-width:1.5625;" x1="1208.8542" x2="1208.8542" y1="380.7861" y2="387.0361"/><line style="stroke:#5E5E5E;stroke-width:1.5625;" x1="1215.1042" x2="1208.8542" y1="387.0361" y2="387.0361"/><text fill="#D8BC00" font-family="Open Sans,Avenir,Nunito,Arial,Helvetica,SansSerif" font-size="12.5" lengthAdjust="spacing" textLength="90.625" x="1105.7292" y="404.3294">kivakit_security</text><!--MD5=[90c7e8c0eae90f7cdcf1e82754bc9c37]
entity kivakit_serialization_core--><rect fill="#1B1B1A" height="44.93" rx="8.3333" ry="8.3333" style="stroke:#5E5E5E;stroke-width:1.5625;" width="186.4583" x="1431.7708" y="268.2861"/><polygon fill="#1B1B1A" points="1600.5208,273.4945,1600.5208,288.0778,1613.0208,288.0778,1613.0208,279.7445,1606.7708,273.4945,1600.5208,273.4945" style="stroke:#5E5E5E;stroke-width:1.5625;"/><line style="stroke:#5E5E5E;stroke-width:1.5625;" x1="1606.7708" x2="1606.7708" y1="273.4945" y2="279.7445"/><line style="stroke:#5E5E5E;stroke-width:1.5625;" x1="1613.0208" x2="1606.7708" y1="279.7445" y2="279.7445"/><text fill="#D8BC00" font-family="Open Sans,Avenir,Nunito,Arial,Helvetica,SansSerif" font-size="12.5" lengthAdjust="spacing" textLength="148.9583" x="1445.3125" y="297.0378">kivakit_serialization_core</text><!--MD5=[7bf535908c90dd3c1fbc894d9b1c5a2e]
entity kivakit_serialization_kryo--><rect fill="#1B1B1A" height="44.93" rx="8.3333" ry="8.3333" style="stroke:#5E5E5E;stroke-width:1.5625;" width="186.4583" x="739.0625" y="268.2861"/><polygon fill="#1B1B1A" points="907.8125,273.4945,907.8125,288.0778,920.3125,288.0778,920.3125,279.7445,914.0625,273.4945,907.8125,273.4945" style="stroke:#5E5E5E;stroke-width:1.5625;"/><line style="stroke:#5E5E5E;stroke-width:1.5625;" x1="914.0625" x2="914.0625" y1="273.4945" y2="279.7445"/><line style="stroke:#5E5E5E;stroke-width:1.5625;" x1="920.3125" x2="914.0625" y1="279.7445" y2="279.7445"/><text fill="#D8BC00" font-family="Open Sans,Avenir,Nunito,Arial,Helvetica,SansSerif" font-size="12.5" lengthAdjust="spacing" textLength="148.9583" x="752.6042" y="297.0378">kivakit_serialization_kryo</text><!--MD5=[11024e5ca6382b1a0f630f967447af59]
entity kivakit_test--><rect fill="#1B1B1A" height="44.93" rx="8.3333" ry="8.3333" style="stroke:#5E5E5E;stroke-width:1.5625;" width="104.1667" x="962.5" y="268.2861"/><polygon fill="#1B1B1A" points="1048.9583,273.4945,1048.9583,288.0778,1061.4583,288.0778,1061.4583,279.7445,1055.2083,273.4945,1048.9583,273.4945" style="stroke:#5E5E5E;stroke-width:1.5625;"/><line style="stroke:#5E5E5E;stroke-width:1.5625;" x1="1055.2083" x2="1055.2083" y1="273.4945" y2="279.7445"/><line style="stroke:#5E5E5E;stroke-width:1.5625;" x1="1061.4583" x2="1055.2083" y1="279.7445" y2="279.7445"/><text fill="#D8BC00" font-family="Open Sans,Avenir,Nunito,Arial,Helvetica,SansSerif" font-size="12.5" lengthAdjust="spacing" textLength="66.6667" x="976.0417" y="297.0378">kivakit_test</text><!--MD5=[7b0fec798d1f32628676dfdf75f1f662]
entity lexakai_annotations--><rect fill="#1B1B1A" height="44.93" rx="8.3333" ry="8.3333" style="stroke:#5E5E5E;stroke-width:1.5625;" width="155.2083" x="1629.6875" y="160.9945"/><polygon fill="#1B1B1A" points="1767.1875,166.2028,1767.1875,180.7861,1779.6875,180.7861,1779.6875,172.4528,1773.4375,166.2028,1767.1875,166.2028" style="stroke:#5E5E5E;stroke-width:1.5625;"/><line style="stroke:#5E5E5E;stroke-width:1.5625;" x1="1773.4375" x2="1773.4375" y1="166.2028" y2="172.4528"/><line style="stroke:#5E5E5E;stroke-width:1.5625;" x1="1779.6875" x2="1773.4375" y1="172.4528" y2="172.4528"/><text fill="#D8BC00" font-family="Open Sans,Avenir,Nunito,Arial,Helvetica,SansSerif" font-size="12.5" lengthAdjust="spacing" textLength="117.7083" x="1643.2292" y="189.7461">lexakai_annotations</text><!--MD5=[9fc9c5f092413c11c1c25bc16308703f]
entity commons_codec--><rect fill="#1B1B1A" height="44.93" rx="8.3333" ry="8.3333" style="stroke:#5E5E5E;stroke-width:1.5625;" width="136.4583" x="1256.7708" y="375.5778"/><polygon fill="#1B1B1A" points="1375.5208,380.7861,1375.5208,395.3695,1388.0208,395.3695,1388.0208,387.0361,1381.7708,380.7861,1375.5208,380.7861" style="stroke:#5E5E5E;stroke-width:1.5625;"/><line style="stroke:#5E5E5E;stroke-width:1.5625;" x1="1381.7708" x2="1381.7708" y1="380.7861" y2="387.0361"/><line style="stroke:#5E5E5E;stroke-width:1.5625;" x1="1388.0208" x2="1381.7708" y1="387.0361" y2="387.0361"/><text fill="#D8BC00" font-family="Open Sans,Avenir,Nunito,Arial,Helvetica,SansSerif" font-size="12.5" lengthAdjust="spacing" textLength="98.9583" x="1270.3125" y="404.3294">commons_codec</text><!--MD5=[2389a778b156a3639a4bce3531bc29c3]
entity commons_logging--><rect fill="#1B1B1A" height="44.93" rx="8.3333" ry="8.3333" style="stroke:#5E5E5E;stroke-width:1.5625;" width="143.75" x="1430.2083" y="375.5778"/><polygon fill="#1B1B1A" points="1556.25,380.7861,1556.25,395.3695,1568.75,395.3695,1568.75,387.0361,1562.5,380.7861,1556.25,380.7861" style="stroke:#5E5E5E;stroke-width:1.5625;"/><line style="stroke:#5E5E5E;stroke-width:1.5625;" x1="1562.5" x2="1562.5" y1="380.7861" y2="387.0361"/><line style="stroke:#5E5E5E;stroke-width:1.5625;" x1="1568.75" x2="1562.5" y1="387.0361" y2="387.0361"/><text fill="#D8BC00" font-family="Open Sans,Avenir,Nunito,Arial,Helvetica,SansSerif" font-size="12.5" lengthAdjust="spacing" textLength="106.25" x="1443.75" y="404.3294">commons_logging</text><!--MD5=[b9ccc173c089e3d2abf77c8581e74aca]
entity kryo_serializers--><rect fill="#1B1B1A" height="44.93" rx="8.3333" ry="8.3333" style="stroke:#5E5E5E;stroke-width:1.5625;" width="131.25" x="892.7083" y="375.5778"/><polygon fill="#1B1B1A" points="1006.25,380.7861,1006.25,395.3695,1018.75,395.3695,1018.75,387.0361,1012.5,380.7861,1006.25,380.7861" style="stroke:#5E5E5E;stroke-width:1.5625;"/><line style="stroke:#5E5E5E;stroke-width:1.5625;" x1="1012.5" x2="1012.5" y1="380.7861" y2="387.0361"/><line style="stroke:#5E5E5E;stroke-width:1.5625;" x1="1018.75" x2="1012.5" y1="387.0361" y2="387.0361"/><text fill="#D8BC00" font-family="Open Sans,Avenir,Nunito,Arial,Helvetica,SansSerif" font-size="12.5" lengthAdjust="spacing" textLength="93.75" x="906.25" y="404.3294">kryo_serializers</text><!--MD5=[23cc7f88cfa1ae4b54fca2963c42906f]
entity swagger_annotations--><rect fill="#1B1B1A" height="44.93" rx="8.3333" ry="8.3333" style="stroke:#5E5E5E;stroke-width:1.5625;" width="162.5" x="202.0833" y="482.8695"/><polygon fill="#1B1B1A" points="346.875,488.0778,346.875,502.6611,359.375,502.6611,359.375,494.3278,353.125,488.0778,346.875,488.0778" style="stroke:#5E5E5E;stroke-width:1.5625;"/><line style="stroke:#5E5E5E;stroke-width:1.5625;" x1="353.125" x2="353.125" y1="488.0778" y2="494.3278"/><line style="stroke:#5E5E5E;stroke-width:1.5625;" x1="359.375" x2="353.125" y1="494.3278" y2="494.3278"/><text fill="#D8BC00" font-family="Open Sans,Avenir,Nunito,Arial,Helvetica,SansSerif" font-size="12.5" lengthAdjust="spacing" textLength="125" x="215.625" y="511.6211">swagger_annotations</text><!--MD5=[ce55b294004802c137560c2930be5b75]
entity junit--><rect fill="#1B1B1A" height="44.93" rx="8.3333" ry="8.3333" style="stroke:#5E5E5E;stroke-width:1.5625;" width="63.5417" x="401.5625" y="482.8695"/><polygon fill="#1B1B1A" points="447.3958,488.0778,447.3958,502.6611,459.8958,502.6611,459.8958,494.3278,453.6458,488.0778,447.3958,488.0778" style="stroke:#5E5E5E;stroke-width:1.5625;"/><line style="stroke:#5E5E5E;stroke-width:1.5625;" x1="453.6458" x2="453.6458" y1="488.0778" y2="494.3278"/><line style="stroke:#5E5E5E;stroke-width:1.5625;" x1="459.8958" x2="453.6458" y1="494.3278" y2="494.3278"/><text fill="#D8BC00" font-family="Open Sans,Avenir,Nunito,Arial,Helvetica,SansSerif" font-size="12.5" lengthAdjust="spacing" textLength="26.0417" x="415.1042" y="511.6211">junit</text><!--MD5=[4d84dd946d4c44d64e4fb3c2bb10389a]
entity httpclient--><rect fill="#1B1B1A" height="44.93" rx="8.3333" ry="8.3333" style="stroke:#5E5E5E;stroke-width:1.5625;" width="92.7083" x="1302.6042" y="268.2861"/><polygon fill="#1B1B1A" points="1377.6042,273.4945,1377.6042,288.0778,1390.1042,288.0778,1390.1042,279.7445,1383.8542,273.4945,1377.6042,273.4945" style="stroke:#5E5E5E;stroke-width:1.5625;"/><line style="stroke:#5E5E5E;stroke-width:1.5625;" x1="1383.8542" x2="1383.8542" y1="273.4945" y2="279.7445"/><line style="stroke:#5E5E5E;stroke-width:1.5625;" x1="1390.1042" x2="1383.8542" y1="279.7445" y2="279.7445"/><text fill="#D8BC00" font-family="Open Sans,Avenir,Nunito,Arial,Helvetica,SansSerif" font-size="12.5" lengthAdjust="spacing" textLength="55.2083" x="1316.1458" y="297.0378">httpclient</text><!--MD5=[1374b169c6b8870e9ee15755210fd002]
entity httpcore--><rect fill="#1B1B1A" height="44.93" rx="8.3333" ry="8.3333" style="stroke:#5E5E5E;stroke-width:1.5625;" width="87.5" x="1610.4167" y="375.5778"/><polygon fill="#1B1B1A" points="1680.2083,380.7861,1680.2083,395.3695,1692.7083,395.3695,1692.7083,387.0361,1686.4583,380.7861,1680.2083,380.7861" style="stroke:#5E5E5E;stroke-width:1.5625;"/><line style="stroke:#5E5E5E;stroke-width:1.5625;" x1="1686.4583" x2="1686.4583" y1="380.7861" y2="387.0361"/><line style="stroke:#5E5E5E;stroke-width:1.5625;" x1="1692.7083" x2="1686.4583" y1="387.0361" y2="387.0361"/><text fill="#D8BC00" font-family="Open Sans,Avenir,Nunito,Arial,Helvetica,SansSerif" font-size="12.5" lengthAdjust="spacing" textLength="50" x="1623.9583" y="404.3294">httpcore</text><!--MD5=[7f157d37bc1fd6ac970bb67ffdbc66a3]
entity hamcrest_core--><rect fill="#1B1B1A" height="44.93" rx="8.3333" ry="8.3333" style="stroke:#5E5E5E;stroke-width:1.5625;" width="125" x="370.8333" y="590.1611"/><polygon fill="#1B1B1A" points="478.125,595.3695,478.125,609.9528,490.625,609.9528,490.625,601.6195,484.375,595.3695,478.125,595.3695" style="stroke:#5E5E5E;stroke-width:1.5625;"/><line style="stroke:#5E5E5E;stroke-width:1.5625;" x1="484.375" x2="484.375" y1="595.3695" y2="601.6195"/><line style="stroke:#5E5E5E;stroke-width:1.5625;" x1="490.625" x2="484.375" y1="601.6195" y2="601.6195"/><text fill="#D8BC00" font-family="Open Sans,Avenir,Nunito,Arial,Helvetica,SansSerif" font-size="12.5" lengthAdjust="spacing" textLength="87.5" x="384.375" y="618.9128">hamcrest_core</text><!--MD5=[b728e17b4e4da6aa8cb97e9b2766c5e6]
entity annotations--><rect fill="#1B1B1A" height="44.93" rx="8.3333" ry="8.3333" style="stroke:#5E5E5E;stroke-width:1.5625;" width="106.25" x="502.0833" y="482.8695"/><polygon fill="#1B1B1A" points="590.625,488.0778,590.625,502.6611,603.125,502.6611,603.125,494.3278,596.875,488.0778,590.625,488.0778" style="stroke:#5E5E5E;stroke-width:1.5625;"/><line style="stroke:#5E5E5E;stroke-width:1.5625;" x1="596.875" x2="596.875" y1="488.0778" y2="494.3278"/><line style="stroke:#5E5E5E;stroke-width:1.5625;" x1="603.125" x2="596.875" y1="494.3278" y2="494.3278"/><text fill="#D8BC00" font-family="Open Sans,Avenir,Nunito,Arial,Helvetica,SansSerif" font-size="12.5" lengthAdjust="spacing" textLength="68.75" x="515.625" y="511.6211">annotations</text><!--MD5=[b3c862d1486667ad9c7edef6529b2202]
entity objenesis--><rect fill="#1B1B1A" height="44.93" rx="8.3333" ry="8.3333" style="stroke:#5E5E5E;stroke-width:1.5625;" width="94.7917" x="910.9375" y="482.8695"/><polygon fill="#1B1B1A" points="988.0208,488.0778,988.0208,502.6611,1000.5208,502.6611,1000.5208,494.3278,994.2708,488.0778,988.0208,488.0778" style="stroke:#5E5E5E;stroke-width:1.5625;"/><line style="stroke:#5E5E5E;stroke-width:1.5625;" x1="994.2708" x2="994.2708" y1="488.0778" y2="494.3278"/><line style="stroke:#5E5E5E;stroke-width:1.5625;" x1="1000.5208" x2="994.2708" y1="494.3278" y2="494.3278"/><text fill="#D8BC00" font-family="Open Sans,Avenir,Nunito,Arial,Helvetica,SansSerif" font-size="12.5" lengthAdjust="spacing" textLength="57.2917" x="924.4792" y="511.6211">objenesis</text><!--MD5=[92e2ad58d19962135e7ff93f22958550]
entity asm--><rect fill="#1B1B1A" height="44.93" rx="8.3333" ry="8.3333" style="stroke:#5E5E5E;stroke-width:1.5625;" width="62.5" x="792.7083" y="590.1611"/><polygon fill="#1B1B1A" points="837.5,595.3695,837.5,609.9528,850,609.9528,850,601.6195,843.75,595.3695,837.5,595.3695" style="stroke:#5E5E5E;stroke-width:1.5625;"/><line style="stroke:#5E5E5E;stroke-width:1.5625;" x1="843.75" x2="843.75" y1="595.3695" y2="601.6195"/><line style="stroke:#5E5E5E;stroke-width:1.5625;" x1="850" x2="843.75" y1="601.6195" y2="601.6195"/><text fill="#D8BC00" font-family="Open Sans,Avenir,Nunito,Arial,Helvetica,SansSerif" font-size="12.5" lengthAdjust="spacing" textLength="25" x="806.25" y="618.9128">asm</text><!--MD5=[923ee6a6eae3e1d757d269661300cab9]
link httpclient to commons_codec--><path d="M1343.9896,313.5257 C1340.2396,329.9945 1335.0729,352.6924 1331.0729,370.2445 " fill="none" id="httpclient-to-commons_codec" style="stroke:#545454;stroke-width:1.5625;"/><polygon fill="#545454" points="1329.875,375.5257,1336.022,367.3119,1331.0331,370.4478,1327.8973,365.4589,1329.875,375.5257" style="stroke:#545454;stroke-width:1.5625;"/><!--MD5=[c333db81a2cf180100c7f76536e57fe3]
link httpclient to commons_logging--><path d="M1380.3125,313.2653 C1405.2917,330.432 1440.2708,354.4632 1466.3333,372.3695 " fill="none" id="httpclient-to-commons_logging" style="stroke:#545454;stroke-width:1.5625;"/><polygon fill="#545454" points="1470.7708,375.4215,1465.3918,366.6855,1466.4742,372.4778,1460.6819,373.5602,1470.7708,375.4215" style="stroke:#545454;stroke-width:1.5625;"/><!--MD5=[eb2a6f0c186b5b958ac6ddd5ba3b959e]
link httpclient to httpcore--><path d="M1395.6979,307.7549 C1444.7813,324.5986 1524.1875,351.8903 1592.7083,375.5778 C1596.7708,376.984 1600.9896,378.4424 1605.2292,379.9111 " fill="none" id="httpclient-to-httpcore" style="stroke:#545454;stroke-width:1.5625;"/><polygon fill="#545454" points="1610.1979,381.6299,1602.7096,374.6172,1605.2781,379.9206,1599.9747,382.489,1610.1979,381.6299" style="stroke:#545454;stroke-width:1.5625;"/><!--MD5=[d68e7c4b3ca5f037bcb6997a0b4ed16b]
link junit to hamcrest_core--><path d="M433.3333,528.109 C433.3333,544.5778 433.3333,567.2757 433.3333,584.8278 " fill="none" id="junit-to-hamcrest_core" style="stroke:#545454;stroke-width:1.5625;"/><polygon fill="#545454" points="433.3333,590.109,437.5,580.734,433.3333,584.9007,429.1667,580.734,433.3333,590.109" style="stroke:#545454;stroke-width:1.5625;"/><!--MD5=[b7f0c0096a22b33f9684f71ae8902e20]
link kivakit_application to kivakit_commandline--><path d="M582.3854,205.9736 C549.8333,223.2757 504.1354,247.5674 470.3646,265.5257 " fill="none" id="kivakit_application-to-kivakit_commandline" style="stroke:#545454;stroke-width:1.5625;"/><polygon fill="#545454" points="465.4792,268.1299,475.7135,267.4152,470.0797,265.6882,471.8067,260.0544,465.4792,268.1299" style="stroke:#545454;stroke-width:1.5625;"/><!--MD5=[900d036117f4072d011d0f8469df27ef]
link kivakit_application to kivakit_configuration--><path d="M622.9167,206.234 C622.9167,222.7028 622.9167,245.4007 622.9167,262.9528 " fill="none" id="kivakit_application-to-kivakit_configuration" style="stroke:#545454;stroke-width:1.5625;"/><polygon fill="#545454" points="622.9167,268.234,627.0833,258.859,622.9167,263.0257,618.75,258.859,622.9167,268.234" style="stroke:#545454;stroke-width:1.5625;"/><!--MD5=[dac09380e252b6a73b9cbaef097b7dbb]
link kivakit_collections to kivakit_serialization_kryo--><path d="M977.25,205.9736 C947.3958,223.2132 905.5313,247.3695 874.4583,265.307 " fill="none" id="kivakit_collections-to-kivakit_serialization_kryo" style="stroke:#545454;stroke-width:1.5625;"/><polygon fill="#545454" points="869.5729,268.1299,879.7751,267.0492,874.0831,265.525,875.6073,259.833,869.5729,268.1299" style="stroke:#545454;stroke-width:1.5625;"/><!--MD5=[7a9a7670444eec57e073e1e035a347ff]
link kivakit_collections to kivakit_test--><path d="M1014.5833,206.234 C1014.5833,222.7028 1014.5833,245.4007 1014.5833,262.9528 " fill="none" id="kivakit_collections-to-kivakit_test" style="stroke:#545454;stroke-width:1.5625;"/><polygon fill="#545454" points="1014.5833,268.234,1018.75,258.859,1014.5833,263.0257,1010.4167,258.859,1014.5833,268.234" style="stroke:#545454;stroke-width:1.5625;"/><!--MD5=[ad08ab7f315d351dcdfee1c003ccf5cf]
link kivakit_commandline to kivakit_kernel--><path d="M425,313.5257 C425,329.9945 425,352.6924 425,370.2445 " fill="none" id="kivakit_commandline-to-kivakit_kernel" style="stroke:#545454;stroke-width:1.5625;"/><polygon fill="#545454" points="425,375.5257,429.1667,366.1507,425,370.3174,420.8333,366.1507,425,375.5257" style="stroke:#545454;stroke-width:1.5625;"/><!--MD5=[d8871492a040d99ca9ba158d1676d072]
link kivakit_examples to kivakit_application--><path d="M1201.5,88.5465 C1079.6458,108.307 830.1875,148.7445 702.3229,169.4736 " fill="none" id="kivakit_examples-to-kivakit_application" style="stroke:#545454;stroke-width:1.5625;"/><polygon fill="#545454" points="697.0833,170.3278,707.0048,172.9386,702.2244,169.4933,705.6696,164.7129,697.0833,170.3278" style="stroke:#545454;stroke-width:1.5625;"/><!--MD5=[72fef6d0a4367807ffd82afe019b68cc]
link kivakit_examples to kivakit_collections--><path d="M1219.5,98.557 C1176.6354,116.0882 1116.0833,140.8486 1071.9167,158.9007 " fill="none" id="kivakit_examples-to-kivakit_collections" style="stroke:#545454;stroke-width:1.5625;"/><polygon fill="#545454" points="1066.8854,160.9632,1077.1396,161.2848,1071.7088,158.9981,1073.9955,153.5673,1066.8854,160.9632" style="stroke:#545454;stroke-width:1.5625;"/><!--MD5=[e77d28ee8077641e960bd250bf6a9cfe]
link kivakit_examples to kivakit_network_http--><path d="M1271.875,98.9424 C1271.875,115.4111 1271.875,138.109 1271.875,155.6611 " fill="none" id="kivakit_examples-to-kivakit_network_http" style="stroke:#545454;stroke-width:1.5625;"/><polygon fill="#545454" points="1271.875,160.9424,1276.0417,151.5674,1271.875,155.734,1267.7083,151.5674,1271.875,160.9424" style="stroke:#545454;stroke-width:1.5625;"/><!--MD5=[4d0061bf40d0d30f71b5721a51ac613a]
link kivakit_examples to kivakit_resource--><path d="M1316.4063,98.557 C1352.6354,115.984 1403.7083,140.5465 1441.1875,158.5778 " fill="none" id="kivakit_examples-to-kivakit_resource" style="stroke:#545454;stroke-width:1.5625;"/><polygon fill="#545454" points="1446.1563,160.9632,1439.4939,153.1617,1441.4569,158.7176,1435.9009,160.6807,1446.1563,160.9632" style="stroke:#545454;stroke-width:1.5625;"/><!--MD5=[5531ef712fa99ba30513a13b63b97d94]
link kivakit_examples to lexakai_annotations--><path d="M1342.3125,94.1611 C1419.3333,112.7653 1542.6354,142.557 1624.2813,162.2965 " fill="none" id="kivakit_examples-to-lexakai_annotations" style="stroke:#545454;stroke-width:1.5625;"/><polygon fill="#545454" points="1629.6042,163.5778,1621.4632,157.3347,1624.5402,162.3601,1619.5148,165.4371,1629.6042,163.5778" style="stroke:#545454;stroke-width:1.5625;"/><!--MD5=[a2f7c49e80f0067c62cb523636c9f00e]
link kivakit_kernel to annotations--><path d="M451.6667,420.557 C472.7292,437.5778 502.1563,461.359 524.2604,479.2236 " fill="none" id="kivakit_kernel-to-annotations" style="stroke:#545454;stroke-width:1.5625;"/><polygon fill="#545454" points="528.5833,482.7132,523.9145,473.5779,524.5338,479.4379,518.6739,480.0572,528.5833,482.7132" style="stroke:#545454;stroke-width:1.5625;"/><!--MD5=[ce1de3a0fcf0456409f45c00bcbf6819]
link kivakit_kernel to jackson_annotations--><path d="M364.8646,417.7028 C307.7604,435.4528 221.7604,462.1715 160.4688,481.2236 " fill="none" id="kivakit_kernel-to-jackson_annotations" style="stroke:#545454;stroke-width:1.5625;"/><polygon fill="#545454" points="155.3646,482.807,165.5544,483.9981,160.3374,481.2585,163.0769,476.0415,155.3646,482.807" style="stroke:#545454;stroke-width:1.5625;"/><!--MD5=[1866acf2ddf7045e9492d220d182168e]
link kivakit_kernel to junit--><path d="M426.7292,420.8174 C428.0313,437.2861 429.8333,459.984 431.2188,477.5361 " fill="none" id="kivakit_kernel-to-junit" style="stroke:#545454;stroke-width:1.5625;"/><polygon fill="#545454" points="431.6354,482.8174,435.039,473.1392,431.2189,477.6257,426.7324,473.8056,431.6354,482.8174" style="stroke:#545454;stroke-width:1.5625;"/><!--MD5=[ceaa58f2fdab01bf1e0ddaf38b77f8a7]
link kivakit_kernel to swagger_annotations--><path d="M395.9896,420.557 C372.9792,437.6507 340.7813,461.557 316.6979,479.4424 " fill="none" id="kivakit_kernel-to-swagger_annotations" style="stroke:#545454;stroke-width:1.5625;"/><polygon fill="#545454" points="312.3021,482.7132,322.3112,480.4615,316.4812,479.6049,317.3379,473.7749,312.3021,482.7132" style="stroke:#545454;stroke-width:1.5625;"/><!--MD5=[b9f3d7eeebeaf9fe3f61b0c75676e267]
link kivakit_network_core to kivakit_security--><path d="M1178.5521,313.5257 C1174.1458,329.9945 1168.0729,352.6924 1163.3854,370.2445 " fill="none" id="kivakit_network_core-to-kivakit_security" style="stroke:#545454;stroke-width:1.5625;"/><polygon fill="#545454" points="1161.9688,375.5257,1168.4294,367.5563,1163.3228,370.4965,1160.3826,365.3898,1161.9688,375.5257" style="stroke:#545454;stroke-width:1.5625;"/><!--MD5=[2da4dac6dcd51ddfc920d13d409dac31]
link kivakit_network_http to httpclient--><path d="M1287.8438,206.234 C1300.125,222.984 1317.1146,246.182 1330.0729,263.859 " fill="none" id="kivakit_network_http-to-httpclient" style="stroke:#545454;stroke-width:1.5625;"/><polygon fill="#545454" points="1333.2708,268.234,1331.0991,258.2073,1330.196,264.0302,1324.373,263.1271,1333.2708,268.234" style="stroke:#545454;stroke-width:1.5625;"/><!--MD5=[45c204851fd38ebf06aead51207b0728]
link kivakit_network_http to kivakit_network_core--><path d="M1253.75,206.234 C1239.8125,222.984 1220.5208,246.182 1205.8125,263.859 " fill="none" id="kivakit_network_http-to-kivakit_network_core" style="stroke:#545454;stroke-width:1.5625;"/><polygon fill="#545454" points="1202.1875,268.234,1211.3885,263.696,1205.5203,264.2317,1204.9847,258.3635,1202.1875,268.234" style="stroke:#545454;stroke-width:1.5625;"/><!--MD5=[5b04580b86b31fc18c828f7ddaf27421]
link kivakit_resource to kivakit_serialization_core--><path d="M1497.75,206.234 C1503.125,222.7028 1510.5417,245.4007 1516.2813,262.9528 " fill="none" id="kivakit_resource-to-kivakit_serialization_core" style="stroke:#545454;stroke-width:1.5625;"/><polygon fill="#545454" points="1518,268.234,1519.0344,258.0271,1516.3754,263.2856,1511.1169,260.6265,1518,268.234" style="stroke:#545454;stroke-width:1.5625;"/><!--MD5=[40faeed4b9f18330bf0f83fa88774571]
link kivakit_serialization_kryo to kryo--><path d="M830.5625,313.5257 C829.2604,329.9945 827.4583,352.6924 826.0729,370.2445 " fill="none" id="kivakit_serialization_kryo-to-kryo" style="stroke:#545454;stroke-width:1.5625;"/><polygon fill="#545454" points="825.6563,375.5257,830.5593,366.514,826.0728,370.3341,822.2527,365.8475,825.6563,375.5257" style="stroke:#545454;stroke-width:1.5625;"/><!--MD5=[03df8de183ef6689edc51eb2e13fe23e]
link kivakit_serialization_kryo to kryo_serializers--><path d="M858.1042,313.2653 C878.4896,330.2861 906.9792,354.0674 928.375,371.932 " fill="none" id="kivakit_serialization_kryo-to-kryo_serializers" style="stroke:#545454;stroke-width:1.5625;"/><polygon fill="#545454" points="932.5521,375.4215,928.0309,366.2123,928.5558,372.0814,922.6867,372.6063,932.5521,375.4215" style="stroke:#545454;stroke-width:1.5625;"/><!--MD5=[8c32f0e7b0abeba01afd276f5a66ee84]
link kryo to minlog--><path d="M798.3646,420.557 C778.1354,437.5778 749.8854,461.359 728.6667,479.2236 " fill="none" id="kryo-to-minlog" style="stroke:#545454;stroke-width:1.5625;"/><polygon fill="#545454" points="724.5208,482.7132,734.3748,479.8582,728.5036,479.357,729.0048,473.4858,724.5208,482.7132" style="stroke:#545454;stroke-width:1.5625;"/><!--MD5=[e75c16e47fcf6c43b15d3c25536a9ed0]
link kryo to objenesis--><path d="M851.4792,420.557 C873.3021,437.6507 903.8438,461.557 926.6771,479.4424 " fill="none" id="kryo-to-objenesis" style="stroke:#545454;stroke-width:1.5625;"/><polygon fill="#545454" points="930.8542,482.7132,926.0393,473.6541,926.7526,479.5033,920.9034,480.2166,930.8542,482.7132" style="stroke:#545454;stroke-width:1.5625;"/><!--MD5=[e061beb27669383d030ce0c5c656b006]
link kryo to reflectasm--><path d="M823.9583,420.8174 C823.9583,437.2861 823.9583,459.984 823.9583,477.5361 " fill="none" id="kryo-to-reflectasm" style="stroke:#545454;stroke-width:1.5625;"/><polygon fill="#545454" points="823.9583,482.8174,828.125,473.4424,823.9583,477.609,819.7917,473.4424,823.9583,482.8174" style="stroke:#545454;stroke-width:1.5625;"/><!--MD5=[09747e497ce27cb7c06bc502bdce2334]
link lexakai_annotations to cactus_build_metadata--><path d="M1714.625,206.234 C1720.1771,222.7028 1727.8125,245.4007 1733.7292,262.9528 " fill="none" id="lexakai_annotations-to-cactus_build_metadata" style="stroke:#545454;stroke-width:1.5625;"/><polygon fill="#545454" points="1735.5,268.234,1736.4697,258.0208,1733.844,263.296,1728.5688,260.6703,1735.5,268.234" style="stroke:#545454;stroke-width:1.5625;"/><!--MD5=[338783537f3f9263e4097f5ff0c514d3]
link reflectasm to asm--><path d="M823.9583,528.109 C823.9583,544.5778 823.9583,567.2757 823.9583,584.8278 " fill="none" id="reflectasm-to-asm" style="stroke:#545454;stroke-width:1.5625;"/><polygon fill="#545454" points="823.9583,590.109,828.125,580.734,823.9583,584.9007,819.7917,580.734,823.9583,590.109" style="stroke:#545454;stroke-width:1.5625;"/><!--MD5=[5da073f0b76c19544797dd97abe57c5b]
@startuml

    !include lexakai.theme
    
    title "kivakit-examples"
    
    artifact kryo
    artifact minlog
    artifact reflectasm
    artifact jackson_annotations
    artifact cactus_build_metadata
    artifact kivakit_application
    artifact kivakit_collections
    artifact kivakit_commandline
    artifact kivakit_configuration
    artifact kivakit_examples
    artifact kivakit_kernel
    artifact kivakit_network_core
    artifact kivakit_network_http
    artifact kivakit_resource
    artifact kivakit_security
    artifact kivakit_serialization_core
    artifact kivakit_serialization_kryo
    artifact kivakit_test
    artifact lexakai_annotations
    artifact commons_codec
    artifact commons_logging
    artifact kryo_serializers
    artifact swagger_annotations
    artifact junit
    artifact httpclient
    artifact httpcore
    artifact hamcrest_core
    artifact annotations
    artifact objenesis
    artifact asm
    httpclient - -> commons_codec
    httpclient - -> commons_logging
    httpclient - -> httpcore
    junit - -> hamcrest_core
    kivakit_application - -> kivakit_commandline
    kivakit_application - -> kivakit_configuration
    kivakit_collections - -> kivakit_serialization_kryo
    kivakit_collections - -> kivakit_test
    kivakit_commandline - -> kivakit_kernel
    kivakit_examples - -> kivakit_application
    kivakit_examples - -> kivakit_collections
    kivakit_examples - -> kivakit_network_http
    kivakit_examples - -> kivakit_resource
    kivakit_examples - -> lexakai_annotations
    kivakit_kernel - -> annotations
    kivakit_kernel - -> jackson_annotations
    kivakit_kernel - -> junit
    kivakit_kernel - -> swagger_annotations
    kivakit_network_core - -> kivakit_security
    kivakit_network_http - -> httpclient
    kivakit_network_http - -> kivakit_network_core
    kivakit_resource - -> kivakit_serialization_core
    kivakit_serialization_kryo - -> kryo
    kivakit_serialization_kryo - -> kryo_serializers
    kryo - -> minlog
    kryo - -> objenesis
    kryo - -> reflectasm
    lexakai_annotations - -> cactus_build_metadata
    reflectasm - -> asm
    
@enduml

@startuml









skinparam backgroundColor #333333






skinparam  {
    defaultFontName   "Open Sans,Avenir,Nunito,Arial,Helvetica,SansSerif"
    defaultFontSize   12
    defaultTextAlignment left
    shadowing false
    RoundCorner 10
    TitleFontSize 18
}

skinparam defaultFontName       "Open Sans,Avenir,Nunito,Arial,Helvetica,SansSerif"
skinparam defaultFontSize       12
skinparam dpi                   100
skinparam shadowing             false
skinparam roundcorner           16
skinparam ParticipantPadding    40
skinparam BoxPadding            40
skinparam Padding               3
skinparam ArrowColor            #545454
skinparam stereotype {
    CBackgroundColor #0066cf
    CBorderColor #0086ef
    ABackgroundColor #C8Ac00
    ABorderColor #D8Bc00
    IBackgroundColor #008400
    IBorderColor #239c23
    EBackgroundColor #cf6300
    EBorderColor #ef8300
    NBackgroundColor #3380b9
    NBorderColor #004d86
}
skinparam title {
	FontColor	                 #c0c0c0
 	BorderColor                  #545454
	FontSize	    	         20
	BorderRoundCorner            16
	BorderThickness 	         1
	BackgroundColor              #48494b
}


skinparam legend {
	BackgroundColor #303030
	BorderColor #404040
	FontColor #a0a0a0
}

	skinparam swimlane {
	BorderColor #5e5e5e
	BorderThickness 2
	TitleBackgroundColor  #6d6d6d-#484848
	TitleFontColor #303030
}

skinparam activity {
		FontColor #C8Ac00
	BorderColor #333333
	BackgroundColor #333333-#333333
	BarColor #00FF00
	StartColor #0060a8
	EndColor #0060a8
	DiamondBackgroundColor #6d6d6d-#3a3a3a
  	DiamondBorderColor #3a3a3a
  	DiamondFontColor #fefefe
}


skinparam participant {
		FontColor #C8Ac00
	BorderColor #333333
	BackgroundColor #333333-#333333
	ParticipantBorderThickness 2
}


skinparam actor {
		FontColor #C8Ac00
	BorderColor #333333
	BackgroundColor #333333-#333333
}


skinparam arrow {
	Thickness 1.5
	Color #545454
	FontColor #a0a0a0
    FontStyle bold
    MessageAlignment center
}



skinparam sequence {
	BorderColor #303030
	TitleFontColor #303030
	BackgroundColor #333333
	StartColor #303030
	EndColor #303030
	BoxBackgroundColor #333333
	BoxBorderColor #484848
	BoxFontColor #484848
	LifeLineBorderColor #484848
	LifeLineBorderThickness 2
	LifeLineBackgroundColor #3a3a3a
	GroupBorderColor #484848
	GroupFontColor #484848
	GroupHeaderFontColor #0060a8
	GroupBackgroundColor #484848
	GroupHeaderBackgroundColor #333333
	DividerBackgroundColor #484848
    DividerBorderColor #484848
    DividerBorderThickness 2
    DividerFontColor #D8Bc00
	ReferenceBackgroundColor #333333
	ReferenceBorderColor #484848
	ReferenceFontColor #fefefe
	ReferenceHeaderBackgroundColor #484848
}


skinparam partition {
	BorderColor #303030
	FontColor #333333
	BackgroundColor #333333
}


skinparam collections {
		FontColor #C8Ac00
	BorderColor #333333
	BackgroundColor #333333-#333333
}


skinparam control {
		FontColor #C8Ac00
	BorderColor #333333
	BackgroundColor #333333-#333333
}


skinparam entity {
		FontColor #C8Ac00
	BorderColor #333333
	BackgroundColor #333333-#333333
}


skinparam boundary {
		FontColor #C8Ac00
	BorderColor #333333
	BackgroundColor #333333-#333333
}


skinparam agent {
	BackgroundColor #ff8000
	BorderColor #ff9933
	FontColor #484848
}


skinparam note {
	BorderThickness 1
	BackgroundColor #1b1b1a
	BorderColor #5e5e5e
	FontSize 11
	FontColor #a0a0a0
}


skinparam artifact {
	BorderThickness 10
	BorderColor #5e5e5e
	BackgroundColor #1b1b1a
	FontColor #D8Bc00
}


skinparam component {
		FontColor #C8Ac00
	BorderColor #333333
	BackgroundColor #333333-#333333
}


skinparam interface {
	BackgroundColor  #008400
	BorderColor  #007F00
	FontColor #484848
}


skinparam storage {
	BackgroundColor #ff8000
  	BorderColor #cc6600
	FontColor #222222
}


skinparam node {
	BackgroundColor #333333
	BorderColor #333333
	FontColor #C8Ac00
}


skinparam cloud {
	BackgroundColor #484848-black
	BorderColor #484848
	FontColor #D8Bc00
}


skinparam database {
		FontColor #C8Ac00
	BorderColor #333333
	BackgroundColor #333333-#333333
	BackgroundColor  #333333
}


skinparam class {
		FontColor #C8Ac00
	BorderColor #333333
	BackgroundColor #333333-#333333
	HeaderBackgroundColor #1b1b1a
    BackgroundColor #282828
    BorderColor #5e5e5e
 	StereotypeFontColor #a0a0a0
    StereotypeFontStyle bold
	BorderThickness 1
	AttributeFontColor #D8Bc00
	AttributeFontSize 11
    FontColor #D8Bc00
    FontStyle bold
}


skinparam object {
		FontColor #C8Ac00
	BorderColor #333333
	BackgroundColor #333333-#333333
	StereotypeFontColor #484848
	BorderThickness 1
	AttributeFontColor #fefefe
	AttributeFontSize 11
}


skinparam usecase {
		FontColor #C8Ac00
	BorderColor #333333
	BackgroundColor #333333-#333333
	BorderThickness 2
	StereotypeFontColor #303030
}


skinparam rectangle {
		FontColor #C8Ac00
	BorderColor #333333
	BackgroundColor #333333-#333333
	BackgroundColor #333333
	BorderThickness 2
	StereotypeFontColor #303030
}


skinparam package {
		FontColor #C8Ac00
	BorderColor #333333
	BackgroundColor #333333-#333333
	BackgroundColor #333333
	BorderThickness 2
}


skinparam folder {
	BackgroundColor #6d6d6d
  	BorderColor #ff8000
	FontColor #ff8000
	BorderThickness 2
}


skinparam frame {
	BackgroundColor #6d6d6d
  	BorderColor #0060a8
	FontColor #0060a8
	BorderThickness 2
}


skinparam state {
		FontColor #C8Ac00
	BorderColor #333333
	BackgroundColor #333333-#333333
	StartColor #0060a8
	EndColor #0060a8
	AttributeFontColor #fefefe
	AttributeFontSize 11
}


skinparam queue {
		FontColor #C8Ac00
	BorderColor #333333
	BackgroundColor #333333-#333333
}


skinparam card {
	BackgroundColor #0060a8
	BorderColor #004d86
	FontColor $INFO_TEXT
}


skinparam file {
	BackgroundColor #6d6d6d-#484848
	BorderColor #0060a8
	FontColor #fefefe
}


skinparam stack {
		FontColor #C8Ac00
	BorderColor #333333
	BackgroundColor #333333-#333333
}

    
    title "kivakit-examples"
    
    artifact kryo
    artifact minlog
    artifact reflectasm
    artifact jackson_annotations
    artifact cactus_build_metadata
    artifact kivakit_application
    artifact kivakit_collections
    artifact kivakit_commandline
    artifact kivakit_configuration
    artifact kivakit_examples
    artifact kivakit_kernel
    artifact kivakit_network_core
    artifact kivakit_network_http
    artifact kivakit_resource
    artifact kivakit_security
    artifact kivakit_serialization_core
    artifact kivakit_serialization_kryo
    artifact kivakit_test
    artifact lexakai_annotations
    artifact commons_codec
    artifact commons_logging
    artifact kryo_serializers
    artifact swagger_annotations
    artifact junit
    artifact httpclient
    artifact httpcore
    artifact hamcrest_core
    artifact annotations
    artifact objenesis
    artifact asm
    httpclient - -> commons_codec
    httpclient - -> commons_logging
    httpclient - -> httpcore
    junit - -> hamcrest_core
    kivakit_application - -> kivakit_commandline
    kivakit_application - -> kivakit_configuration
    kivakit_collections - -> kivakit_serialization_kryo
    kivakit_collections - -> kivakit_test
    kivakit_commandline - -> kivakit_kernel
    kivakit_examples - -> kivakit_application
    kivakit_examples - -> kivakit_collections
    kivakit_examples - -> kivakit_network_http
    kivakit_examples - -> kivakit_resource
    kivakit_examples - -> lexakai_annotations
    kivakit_kernel - -> annotations
    kivakit_kernel - -> jackson_annotations
    kivakit_kernel - -> junit
    kivakit_kernel - -> swagger_annotations
    kivakit_network_core - -> kivakit_security
    kivakit_network_http - -> httpclient
    kivakit_network_http - -> kivakit_network_core
    kivakit_resource - -> kivakit_serialization_core
    kivakit_serialization_kryo - -> kryo
    kivakit_serialization_kryo - -> kryo_serializers
    kryo - -> minlog
    kryo - -> objenesis
    kryo - -> reflectasm
    lexakai_annotations - -> cactus_build_metadata
    reflectasm - -> asm
    
@enduml

PlantUML version 1.2021.01(Tue Feb 02 00:55:08 MST 2021)
(GPL source distribution)
Java Runtime: Java(TM) SE Runtime Environment
JVM: Java HotSpot(TM) 64-Bit Server VM
Default Encoding: UTF-8
Language: en
Country: US
--></g></svg>